<svg id="visual" viewBox="0 0 900 600" width="900" height="600" xmlns="http://www.w3.org/2000/svg" xmlns:xlink="http://www.w3.org/1999/xlink" version="1.1"><rect x="0" y="0" width="900" height="600" fill="#001220"></rect><defs><linearGradient id="grad1_0" x1="33.3%" y1="0%" x2="100%" y2="100%"><stop offset="20%" stop-color="#001220" stop-opacity="1"></stop><stop offset="80%" stop-color="#001220" stop-opacity="1"></stop></linearGradient></defs><defs><linearGradient id="grad2_0" x1="0%" y1="0%" x2="66.7%" y2="100%"><stop offset="20%" stop-color="#001220" stop-opacity="1"></stop><stop offset="80%" stop-color="#001220" stop-opacity="1"></stop></linearGradient></defs><g transform="translate(900, 0)"><path d="M0 486.7C-60.1 462.8 -120.3 438.9 -169.1 408.4C-218 377.8 -255.6 340.7 -305.5 305.5C-355.3 270.2 -417.4 236.9 -449.7 186.3C-482 135.7 -484.4 67.8 -486.7 0L0 0Z" fill="#FBAE3C"></path></g><g transform="translate(0, 600)"><path d="M0 -486.7C71.7 -488.4 143.4 -490.1 186.3 -449.7C229.2 -409.3 243.3 -326.8 275.8 -275.8C308.2 -224.8 359 -205.3 397.3 -164.6C435.5 -123.8 461.1 -61.9 486.7 0L0 0Z" fill="#FBAE3C"></path></g></svg>